<svg id="visual" viewBox="0 0 900 600" width="900" height="600" xmlns="http://www.w3.org/2000/svg" xmlns:xlink="http://www.w3.org/1999/xlink" version="1.1"><rect x="0" y="0" width="900" height="600" fill="#FFFFFF"></rect><defs><linearGradient id="grad1_0" x1="33.3%" y1="0%" x2="100%" y2="100%"><stop offset="20%" stop-color="#ffffff" stop-opacity="1"></stop><stop offset="80%" stop-color="#ffffff" stop-opacity="1"></stop></linearGradient></defs><defs><linearGradient id="grad2_0" x1="0%" y1="0%" x2="66.7%" y2="100%"><stop offset="20%" stop-color="#ffffff" stop-opacity="1"></stop><stop offset="80%" stop-color="#ffffff" stop-opacity="1"></stop></linearGradient></defs><g transform="translate(900, 0)"><path d="M0 540.8C-69.5 532.6 -138.9 524.4 -207 499.7C-275 474.9 -341.7 433.5 -376.2 376.2C-410.7 318.9 -413.1 245.6 -435.1 180.2C-457.2 114.9 -499 57.4 -540.8 0L0 0Z" fill="#90f2f8"></path></g><g transform="translate(0, 600)"><path d="M0 -540.8C61 -509.8 122 -478.8 189.4 -457.3C256.8 -435.8 330.6 -423.8 382.4 -382.4C434.3 -341 464.1 -270.3 486.9 -201.7C509.6 -133 525.2 -66.5 540.8 0L0 0Z" fill="#90f2f8"></path></g></svg>