<svg id="visual" viewBox="0 0 900 600" width="900" height="600" xmlns="http://www.w3.org/2000/svg" xmlns:xlink="http://www.w3.org/1999/xlink" version="1.1"><rect x="0" y="0" width="900" height="600" fill="#FFFFFF"></rect><defs><linearGradient id="grad1_0" x1="33.3%" y1="0%" x2="100%" y2="100%"><stop offset="20%" stop-color="#ffffff" stop-opacity="1"></stop><stop offset="80%" stop-color="#ffffff" stop-opacity="1"></stop></linearGradient></defs><defs><linearGradient id="grad2_0" x1="0%" y1="0%" x2="66.7%" y2="100%"><stop offset="20%" stop-color="#ffffff" stop-opacity="1"></stop><stop offset="80%" stop-color="#ffffff" stop-opacity="1"></stop></linearGradient></defs><g transform="translate(900, 0)"><path d="M0 513.8C-84.4 491.7 -168.7 469.6 -248 429.5C-327.3 389.5 -401.5 331.5 -445 256.9C-488.4 182.3 -501.1 91.2 -513.8 0L0 0Z" fill="#00fff7"></path></g><g transform="translate(0, 600)"><path d="M0 -513.8C87.6 -497.2 175.1 -480.7 254 -439.9C332.9 -399.2 403.1 -334.3 445 -256.9C486.8 -179.5 500.3 -89.8 513.8 0L0 0Z" fill="#00fff7"></path></g></svg>