<svg xmlns="http://www.w3.org/2000/svg" viewBox="0 0 190.17 148.09"><defs><style>.cls-1{fill:#0099f5;}</style></defs><title>dalesandro-tech-icon-solid</title><g id="Layer_2" data-name="Layer 2"><g id="Layer_1-2" data-name="Layer 1"><path class="cls-1" d="M120.5,61.17a2.5,2.5,0,0,1-1.45-4.53c9.85-7.06,7.45-20.77,7.43-20.9a2.59,2.59,0,0,1,0-.47,6.53,6.53,0,0,0-6.23-6.55,61.88,61.88,0,0,1-13.27,1.35,79.14,79.14,0,0,1-14.32-1.45,6.54,6.54,0,0,0-6.32,6.5,2.25,2.25,0,0,1,0,.44c0,.16-2.8,16.39,8.21,20.68a2.5,2.5,0,0,1-1.82,4.66c-14.2-5.54-11.72-23.69-11.34-26A11.54,11.54,0,0,1,92.82,23.61a2.67,2.67,0,0,1,.56.06A74.8,74.8,0,0,0,107,25.07a52.56,52.56,0,0,0,12.38-1.28,2.94,2.94,0,0,1,.62-.07,11.53,11.53,0,0,1,11.48,11.33c.36,2.17,2.33,17.2-9.47,25.65A2.49,2.49,0,0,1,120.5,61.17Z"/><path class="cls-1" d="M113.5,89.93h0c-3.86,0-4.29-4.9-4.92-12.29-.33-3.76-1.08-12.55-2.75-13.39-1.39.88-2,8.66-2.24,12.4-.54,7.38-1,13.22-5.31,13.22h0c-7.85,0-12.09-24.24-12.46-33.86a2.5,2.5,0,0,1,5-.19c.47,12.48,4.44,24.87,6.93,28.27a65.11,65.11,0,0,0,.88-7.81c.62-8.37,1.25-17,7.25-17h0c6.14,0,6.92,9.14,7.68,17.95.17,2,.38,4.36.65,6.11,1.3-2.54,3.58-8.75,6.52-23.75a2.5,2.5,0,0,1,4.91,1C120.31,87.61,116.58,89.93,113.5,89.93Z"/><path class="cls-1" d="M106.33,113.54a2.54,2.54,0,0,1-1.25-.33l-47-27.14a2.51,2.51,0,0,1-1.25-2.16V29.63a2.51,2.51,0,0,1,1.25-2.16l47-27.14a2.53,2.53,0,0,1,2.5,0l47,27.14a2.51,2.51,0,0,1,1.25,2.16V83.91a2.51,2.51,0,0,1-1.25,2.16l-47,27.14A2.54,2.54,0,0,1,106.33,113.54ZM61.83,82.46l44.5,25.69,44.5-25.69V31.08L106.33,5.39,61.83,31.08Z"/><path class="cls-1" d="M23.72,132.82a2.5,2.5,0,0,1-1.25-.34L1.25,120.23A2.51,2.51,0,0,1,0,118.07V93.57A2.52,2.52,0,0,1,1.25,91.4L22.47,79.16a2.48,2.48,0,0,1,2.5,0L46.18,91.4a2.52,2.52,0,0,1,1.25,2.17v24.5a2.51,2.51,0,0,1-1.25,2.16L25,132.48A2.55,2.55,0,0,1,23.72,132.82ZM5,116.62l18.72,10.81,18.71-10.81V95L23.72,84.21,5,95Z"/><path class="cls-1" d="M64.35,148.09a2.45,2.45,0,0,1-1.25-.34L52,141.36a2.5,2.5,0,0,1-1.25-2.16V126.42A2.52,2.52,0,0,1,52,124.25l11.07-6.39a2.53,2.53,0,0,1,2.5,0l11.07,6.39a2.52,2.52,0,0,1,1.25,2.17V139.2a2.5,2.5,0,0,1-1.25,2.16L65.6,147.75A2.45,2.45,0,0,1,64.35,148.09Zm-8.57-10.33,8.57,4.94,8.57-4.94v-9.9l-8.57-4.94-8.57,4.94Z"/><path class="cls-1" d="M44.93,96.07a2.5,2.5,0,0,1-1.39-4.58l14.4-9.66A2.5,2.5,0,1,1,60.72,86l-14.4,9.67A2.52,2.52,0,0,1,44.93,96.07Z"/><path class="cls-1" d="M174.85,34.72a2.45,2.45,0,0,1-1.25-.34L160.78,27a2.5,2.5,0,0,1-1.25-2.16V10a2.5,2.5,0,0,1,1.25-2.16L173.6.45a2.48,2.48,0,0,1,2.5,0l12.82,7.4A2.47,2.47,0,0,1,190.17,10V24.82A2.47,2.47,0,0,1,188.92,27l-12.82,7.4A2.4,2.4,0,0,1,174.85,34.72ZM164.53,23.37l10.32,6,10.32-6V11.46l-10.32-6-10.32,6Z"/><path class="cls-1" d="M153.33,33.16a2.5,2.5,0,0,1-1.39-4.58l8.7-5.84a2.5,2.5,0,0,1,2.79,4.15l-8.71,5.84A2.45,2.45,0,0,1,153.33,33.16Z"/><path class="cls-1" d="M53.28,128.92a2.49,2.49,0,0,1-1.77-.73l-8.35-8.36a2.5,2.5,0,1,1,3.54-3.53l8.35,8.35a2.5,2.5,0,0,1-1.77,4.27Z"/></g></g></svg>